<?xml version="1.0" encoding="UTF-8"?>
<svg width="2560px" height="770px" viewBox="0 0 2560 770" version="1.1" xmlns="http://www.w3.org/2000/svg" xmlns:xlink="http://www.w3.org/1999/xlink">
    <title>bg_login_2560</title>
    <defs>
        <rect id="path-1" x="0" y="0" width="2560" height="770"></rect>
        <linearGradient x1="50%" y1="77.5371328%" x2="49.9999873%" y2="99.2691026%" id="linearGradient-3">
            <stop stop-color="#FFDC00" offset="3.72049825%"></stop>
            <stop stop-color="#B9E709" offset="62.3743444%"></stop>
            <stop stop-color="#6AE25A" offset="100%"></stop>
        </linearGradient>
        <path d="M688.000533,1715 C1074.00053,1587 980.000533,2270 1584.00053,2270 C2188.00053,2270 2108.00053,1427.74795 2108.00053,1054 C2108.00053,471.891874 1636.10866,0 1054.00053,0 C471.892406,0 0,471.891874 0,1054 C0,1636.10813 253.881401,1858.9566 688.000533,1715 Z" id="path-4"></path>
        <linearGradient x1="49.9999995%" y1="78.3456704%" x2="49.9999873%" y2="99.2691026%" id="linearGradient-6">
            <stop stop-color="#FFFFFF" offset="0%"></stop>
            <stop stop-color="#FFFFFF" offset="62.3743444%"></stop>
            <stop stop-color="#FFFFFF" offset="100%"></stop>
        </linearGradient>
        <linearGradient x1="49.9999995%" y1="78.3456704%" x2="49.9999873%" y2="99.2691026%" id="linearGradient-7">
            <stop stop-color="#FFFFFF" offset="0%"></stop>
            <stop stop-color="#FFFFFF" offset="62.3743444%"></stop>
            <stop stop-color="#FFFFFF" offset="100%"></stop>
        </linearGradient>
    </defs>
    <g id="Prototype" stroke="none" stroke-width="1" fill="none" fill-rule="evenodd">
        <g id="bg_login_2560" transform="translate(0.000000, -0.000000)">
            <mask id="mask-2" fill="white">
                <use xlink:href="#path-1"></use>
            </mask>
            <g id="Mask"></g>
            <g id="bg" mask="url(#mask-2)">
                <g transform="translate(194.000000, -1525.000000)">
                    <mask id="mask-5" fill="white">
                        <use xlink:href="#path-4"></use>
                    </mask>
                    <use id="Oval" stroke="none" fill="url(#linearGradient-3)" fill-rule="evenodd" xlink:href="#path-4"></use>
                    <path d="M1075.00053,8 C1365.77845,8 1629.02845,125.86104 1819.58397,316.416559 C2010.13949,506.972079 2128.00053,770.222079 2128.00053,1061 C2128.00053,1105.87267 2129.54241,1157.15148 2131.21142,1212.65189 C2138.51079,1455.38067 2148.28673,1778.93703 2041.87455,2000.26147 C2004.06383,2078.90317 1951.57408,2144.62659 1879.04741,2189.17365 C1814.05672,2229.092 1732.98424,2252 1632,2252 C1313.40888,2252 1168.41875,2058.88369 1045.70012,1895.54374 C983.070441,1812.18288 926.209432,1736.56581 855.186294,1698.05827 C801.366895,1668.87831 739.42015,1660.94184 660.685248,1687.05083 C550.978161,1723.43038 455.868149,1738.54176 374.990801,1731.37446 C295.322418,1724.3143 229.48412,1695.62499 177.140204,1644.34431 C72.7250867,1542.05012 22,1350.03221 22,1061 C22,770.222116 139.861143,506.972146 330.416753,316.416632 C520.972412,125.86107 784.222575,8 1075.00053,8 L1075.00053,8 Z" id="Oval-Copy-6" stroke="url(#linearGradient-6)" stroke-width="2" fill="none" opacity="0.393205915" mask="url(#mask-5)"></path>
                    <path d="M1075.00053,-22 C1365.77845,-22 1629.02845,95.8610396 1819.58397,286.416559 C2010.13949,476.972079 2128.00053,740.222079 2128.00053,1031 C2128.00053,1104.41937 2137.67994,1195.02353 2148.1818,1293.30073 C2173.50017,1530.23186 2203.65517,1811.83227 2114.04033,2004.47893 C2081.33085,2074.7951 2032.64745,2133.24367 1961.90133,2173.29146 C1898.04183,2209.4409 1816.22084,2230.59574 1711.98653,2232.00009 C1354.94243,2236.81057 1180.5876,2027.08728 1038.43585,1856.19023 C968.128985,1771.66622 905.662502,1696.63127 832.988192,1661.48569 C777.486408,1634.64481 716.030209,1630.99066 640.598243,1664.08425 C514.351302,1719.47146 413.579876,1747.39505 333.202983,1750.78833 C249.824056,1754.30835 188.440141,1731.4071 143.389032,1685.3387 C38.5662569,1578.14896 22,1346.05457 22,1031 C22,740.222116 139.861143,476.972146 330.416753,286.416632 C520.972412,95.8610695 784.222575,-22 1075.00053,-22 Z" id="Oval-Copy-7" stroke="url(#linearGradient-7)" stroke-width="2" fill="none" opacity="0.229282924" mask="url(#mask-5)"></path>
                </g>
            </g>
        </g>
    </g>
</svg>