<svg xmlns="http://www.w3.org/2000/svg" width="2560" height="800" viewBox="0 0 2560 800" fill="none">
<g clip-path="url(#clip0)">
<path d="M545.087 23.9674C816.134 22.6726 1157.14 233.929 1434.2 210.34C1817 196 2173.84 -78.9362 2295.86 23.9674C2422.5 130.769 2704.23 103.319 2683 166C2642.04 286.933 2548.9 609.426 2598.5 677.698C2688.45 763.039 2409.6 572.051 2192.31 721.243C2068.86 806.004 1908.99 709.354 1836.56 701.597C1722.25 689.343 1531.59 676.404 1458.96 721.243C1409.38 751.847 1372.64 789.74 1251.72 796.932C1112.14 805.172 1120.29 764.844 997.126 721.243C886.112 681.939 708.834 598.397 477.167 677.698C245.5 757 -351.08 848.498 -279.5 721.243C-187.134 557.035 -144.134 351.637 -120.501 274.5C-92.5359 250.05 -126.353 303.309 -195.5 233C-291.306 135.617 420.934 24.556 545.087 23.9674Z" fill="#54B645"/>
</g>
<defs>
<clipPath id="clip0">
<rect width="2560" height="800" fill="white"/>
</clipPath>
</defs>
</svg>